<svg preserveAspectRatio="none" width="100%" height="100%" overflow="visible" style="display: block;" viewBox="0 0 41.2401 42.4317" fill="none" xmlns="http://www.w3.org/2000/svg">
<g id="Union">
<path d="M27.7951 6.92385C26.021 7.94824 23.7523 7.34047 22.7279 5.56635L20.3893 1.51616C19.5522 0.0663687 17.6983 -0.430412 16.2484 0.406527C14.7983 1.24359 14.3014 3.09777 15.1386 4.54782L18.6536 10.636C20.7022 14.1843 25.2393 15.4 28.7876 13.3516L34.8764 9.83642C36.3265 8.99929 36.8233 7.14514 35.9862 5.69511C35.149 4.24506 33.2948 3.74828 31.8448 4.58553L27.7951 6.92385Z" fill="var(--fill-0, #F3CEB9)"/>
<path d="M9.83327 10.5156C10.2593 12.5195 8.98022 14.4893 6.97637 14.9153L2.40174 15.8879C0.764221 16.236 -0.281117 17.8456 0.0668148 19.4832C0.414799 21.121 2.02467 22.1666 3.66246 21.8185L10.5389 20.3568C14.5465 19.505 17.1048 15.5656 16.2531 11.558L14.7915 4.68093C14.4435 3.04315 12.8336 1.99766 11.1958 2.34578C9.55806 2.6939 8.51262 4.30383 8.86081 5.94159L9.83327 10.5156Z" fill="var(--fill-0, #F3CEB9)"/>
<path d="M7.69875 28.7083C9.73617 28.9223 11.2143 30.7475 11.0003 32.7849L10.5116 37.4362C10.3367 39.1012 11.5445 40.5927 13.2094 40.7679C14.8746 40.943 16.3665 39.735 16.5415 38.0698L17.2763 31.0783C17.7046 27.0036 14.7486 23.3532 10.6739 22.9248L3.68181 22.1897C2.01663 22.0146 0.524835 23.2226 0.349818 24.8878C0.174798 26.553 1.38287 28.0447 3.04807 28.2197L7.69875 28.7083Z" fill="var(--fill-0, #F3CEB9)"/>
<path d="M24.3414 36.3602C25.1745 34.4886 27.3672 33.6468 29.2387 34.48L33.5113 36.3821C35.0408 37.0629 36.8326 36.3752 37.5136 34.8458C38.1948 33.3163 37.5069 31.5241 35.9773 30.8431L29.5551 27.9837C25.8121 26.3173 21.4269 28.0005 19.7603 31.7434L16.9005 38.1661C16.2194 39.6957 16.9073 41.4878 18.4369 42.1688C19.9665 42.8498 21.7586 42.1619 22.4396 40.6322L24.3414 36.3602Z" fill="var(--fill-0, #F3CEB9)"/>
<path d="M36.7616 22.8966C35.2391 21.5259 35.1161 19.1805 36.4868 17.658L39.6161 14.1823C40.7363 12.9381 40.6359 11.0215 39.3918 9.90115C38.1476 8.78067 36.2306 8.88105 35.1103 10.1254L30.4063 15.3497C27.6647 18.3945 27.9105 23.0852 30.9552 25.8269L36.1798 30.5314C37.4241 31.6518 39.341 31.5514 40.4614 30.3071C41.5818 29.0628 41.4812 27.1458 40.2369 26.0255L36.7616 22.8966Z" fill="var(--fill-0, #F3CEB9)"/>
</g>
</svg>
